<?xml version="1.0" encoding="UTF-8"?>
<svg xmlns="http://www.w3.org/2000/svg" xmlns:xlink="http://www.w3.org/1999/xlink" width="60px" height="57px" viewBox="0 0 60 57" version="1.1">
    <!-- Generator: Sketch 52.6 (67491) - http://www.bohemiancoding.com/sketch -->
    <title>017 - Shopping Trolley</title>
    <desc>Created with Sketch.</desc>
    <g id="Page-1" stroke="none" stroke-width="1" fill="none" fill-rule="evenodd">
        <g id="017---Shopping-Trolley">
            <g id="Icons_copy" transform="translate(1.000000, 1.000000)">
                <path d="M57.97,11.22 L52.44,35.22 C52.3367787,35.6777145 51.9292043,36.0021104 51.46,36 L20.35,36 L13.26,10 L57,10 C57.302906,10.0016649 57.5887318,10.1405388 57.7772466,10.37764 C57.9657615,10.6147411 58.0366449,10.9245118 57.97,11.22 Z" id="Path" fill="#FFDC00"/>
                <path d="M57,10 L54,10 C54.302906,10.0016649 54.5887318,10.1405388 54.7772466,10.37764 C54.9657615,10.6147411 55.0366449,10.9245118 54.97,11.22 L49.44,35.22 C49.3367787,35.6777145 48.9292043,36.0021104 48.46,36.0000102 L51.46,36 C51.9292043,36.0021104 52.3367787,35.6777145 52.44,35.22 L57.97,11.22 C58.0366449,10.9245118 57.9657615,10.6147411 57.7772466,10.37764 C57.5887318,10.1405388 57.302906,10.0016649 57,10 Z" id="Path" fill="#FF8401"/>
                <path d="M55,43 C54.9967052,44.1032019 54.1032019,44.9967052 53,45 L20.18,45 C19.2789896,45.0006771 18.4887676,44.3987982 18.25,43.53 L8.07,6.21 C7.71421784,4.9066097 6.53107505,4.00185345 5.18,4 L2,4 C0.8954305,4 2.22044605e-16,3.1045695 0,2 C-1.11022302e-16,0.8954305 0.8954305,0 2,0 L5.18,0 C8.33593102,0.00173289392 11.1004413,2.11504745 11.93,5.16 L12.84,8.47 L13.26,10 L20.35,36 L21.71,41 L53,41 C54.1032019,41.0032948 54.9967052,41.8967981 55,43 Z" id="Path" fill="#FFDC00"/>
                <path d="M53,41 L50,41 C51.1045695,41 52,41.8954305 52,43 C52,44.1045695 51.1045695,45 50,45 L53,45 C54.1045695,45 55,44.1045695 55,43 C55,41.8954305 54.1045695,41 53,41 Z" id="Path" fill="#FF8401"/>
                <circle id="Oval" fill="#BFBFBF" cx="48" cy="50" r="5"/>
                <path d="M48,45 C47.4899219,45.007121 46.9839862,45.0927928 46.5,45.254 C48.5807519,45.8978254 49.9994946,47.8219184 49.9994946,50 C49.9994946,52.1780816 48.5807519,54.1021746 46.5,54.746 C48.3757024,55.3415702 50.4262648,54.7790725 51.7355561,53.3098143 C53.0448475,51.8405561 53.3682984,49.7389878 52.5614005,47.9440284 C51.7545026,46.149069 49.9679806,44.9960083 48,45 Z" id="Path" fill="#808080"/>
                <circle id="Oval" fill="#BFBFBF" cx="24" cy="50" r="5"/>
                <path d="M24,45 C23.4899219,45.007121 22.9839862,45.0927928 22.5,45.254 C24.5807519,45.8978254 25.9994946,47.8219184 25.9994946,50 C25.9994946,52.1780816 24.5807519,54.1021746 22.5,54.746 C24.3757024,55.3415702 26.4262648,54.7790725 27.7355561,53.3098143 C29.0448475,51.8405561 29.3682984,49.7389878 28.5614005,47.9440284 C27.7545026,46.149069 25.9679806,44.9960083 24,45 Z" id="Path" fill="#808080"/>
                <path d="M45,15.986 C45.0032832,16.5107865 44.7961895,17.0150148 44.425,17.386 L30.383,31.421 C29.816712,31.9897974 28.9627351,32.1597727 28.2218083,31.8511629 C27.4808814,31.542553 27.0000698,30.8166134 27.005,30.014 C27.0017168,29.4892135 27.2088105,28.9849852 27.58,28.614 L41.617,14.58 C42.1826653,14.0077084 43.038751,13.8353595 43.7818031,14.1441775 C44.5248552,14.4529955 45.0065992,15.1813563 45,15.986 Z" id="Path" fill="#FFFFFF"/>
                <circle id="Oval" fill="#FFFFFF" cx="30" cy="17" r="3"/>
                <path d="M30,14 C29.4718941,14.0027453 28.9540847,14.1463511 28.5,14.416 C29.4273539,14.9458262 29.9996803,15.9319639 29.9996803,17 C29.9996803,18.0680361 29.4273539,19.0541738 28.5,19.584 C28.9540847,19.8536489 29.4718941,19.9972547 30,20 C31.6568542,20 33,18.6568542 33,17 C33,15.3431458 31.6568542,14 30,14 Z" id="Path" fill="#CCCCCC"/>
                <circle id="Oval" fill="#FFFFFF" cx="42" cy="29" r="3"/>
                <path d="M42,26 C41.4718941,26.0027453 40.9540847,26.1463511 40.5,26.416 C41.4273539,26.9458262 41.9996803,27.9319639 41.9996803,29 C41.9996803,30.0680361 41.4273539,31.0541738 40.5,31.584 C40.9540847,31.8536489 41.4718941,31.9972547 42,32 C43.6568542,32 45,30.6568542 45,29 C45,27.3431458 43.6568542,26 42,26 Z" id="Path" fill="#CCCCCC"/>
            </g>
            <g id="Icons_copy_2" transform="translate(1.000000, 1.000000)" fill="#FFFFFF">
                <path d="M22.5,45.254 C20.4192481,45.8978254 19.0005054,47.8219184 19.0005054,50 C19.0005054,52.1780816 20.4192481,54.1021746 22.5,54.746 C22.7242407,54.8197287 22.9535005,54.8772108 23.186,54.918 C23.4541652,54.9707743 23.7266969,54.9982283 24,55 C24.5100781,54.992879 25.0160138,54.9072072 25.5,54.746 C23.4192481,54.1021746 22.0005054,52.1780816 22.0005054,50 C22.0005054,47.8219184 23.4192481,45.8978254 25.5,45.254 C25.0160138,45.0927928 24.5100781,45.007121 24,45 C23.7266969,45.0017717 23.4541652,45.0292257 23.186,45.082 C22.9535005,45.1227892 22.7242407,45.1802713 22.5,45.254 Z" id="Path"/>
                <path d="M8.07,6.21 L18.25,43.53 C18.4887676,44.3987982 19.2789896,45.0006771 20.18,45 L23.18,45.0000006 C22.2789896,45.0006771 21.4887676,44.3987982 21.25,43.53 L11.07,6.21 C10.7142178,4.9066097 9.53107505,4.00185345 8.18,4 L5.18,4 C6.53107505,4.00185345 7.71421784,4.9066097 8.07,6.21 Z" id="Path"/>
                <path d="M2,4 L5,4 C3.8954305,4 3,3.1045695 3,2 C3,0.8954305 3.8954305,0 5,0 L2,0 C0.8954305,0 2.22044605e-16,0.8954305 0,2 C-1.11022302e-16,3.1045695 0.8954305,4 2,4 Z" id="Path"/>
            </g>
            <g id="Icons">
                <rect id="Rectangle" fill="#FFFFFF" transform="translate(10.124163, 11.068055) rotate(-15.257000) translate(-10.124163, -11.068055) " x="9.12416276" y="7.06805457" width="2" height="8"/>
                <path d="M10.144,12.068 C9.59171525,12.0707614 9.14176142,11.6252847 9.139,11.073 C9.13623858,10.5207153 9.58171525,10.0707614 10.134,10.068 L10.144,10.068 C10.6962847,10.068 11.144,10.5157153 11.144,11.068 C11.144,11.6202847 10.6962847,12.068 10.144,12.068 Z" id="Path" fill="#000000"/>
                <path d="M3,6 L6.18,6 C7.08009113,6.00137084 7.86837671,6.6038404 8.106,7.472 C8.19996084,7.8167613 8.47071221,8.08520637 8.81626468,8.17621454 C9.16181715,8.26722271 9.52967308,8.16696767 9.7812647,7.91321454 C10.0328563,7.6594614 10.1299609,7.2907613 10.036,6.946 C9.56111132,5.20745641 7.98223519,4.00118849 6.18,4 L3,4 C2.44771525,4 2,3.55228475 2,3 C2,2.44771525 2.44771525,2 3,2 L6.18,2 C8.88400785,2.00145551 11.2529449,3.81142988 11.965,6.42 L21.742,42.263 C21.860632,42.6981925 22.2559279,43.0000921 22.707,43 L54,43 C54.5522847,43 55,43.4477153 55,44 C55,44.5522847 54.5522847,45 54,45 L21.18,45 C20.7289279,45.0000921 20.333632,44.6981925 20.215,44.263 L12.141,14.663 C12.0539068,14.3106416 11.7827252,14.0331391 11.4324667,13.9379516 C11.0822082,13.8427642 10.7078716,13.9448383 10.4544136,14.2046473 C10.2009555,14.4644563 10.108175,14.841204 10.212,15.189 L18.285,44.789 C18.5868702,45.8860848 19.4834235,46.7179623 20.6,46.937 C18.3957091,49.3160695 18.4809737,53.0161801 20.7925122,55.2911877 C23.1040507,57.5661954 26.80505,57.5925117 29.1487065,55.3506054 C31.492363,53.108699 31.6302364,49.410175 29.46,47 L44.54,47 C42.3781987,49.4022845 42.5075015,53.0851977 44.8324552,55.3299574 C47.1574088,57.574717 50.8425912,57.574717 53.1675448,55.3299574 C55.4924985,53.0851977 55.6218013,49.4022845 53.46,47 L54,47 C55.6568542,47 57,45.6568542 57,44 C57,42.3431458 55.6568542,41 54,41 L23.471,41 L22.653,38 L52.46,38 C53.3940065,37.9994256 54.2042905,37.3549286 54.415,36.445 L59.941,12.456 C60.0824127,11.8622692 59.9441197,11.2364735 59.56568,10.7576236 C59.1872404,10.2787736 58.610339,9.99961436 58,10 L15.02,10 L14.804,9.207 L13.9,5.894 C12.9474813,2.41507908 9.78696244,0.00211297011 6.18,4.4408921e-16 L3,4.4408921e-16 C1.34314575,0 2.02906125e-16,1.34314575 0,3 C-2.02906125e-16,4.65685425 1.34314575,6 3,6 Z M29,51 C29,53.209139 27.209139,55 25,55 C22.790861,55 21,53.209139 21,51 C21,48.790861 22.790861,47 25,47 C27.209139,47 29,48.790861 29,51 Z M53,51 C53,53.209139 51.209139,55 49,55 C46.790861,55 45,53.209139 45,51 C45,48.790861 46.790861,47 49,47 C51.209139,47 53,48.790861 53,51 Z M58,12 L52.46,36 L22.108,36 L15.565,12 L58,12 Z" id="Shape" fill="#000000" fill-rule="nonzero"/>
                <circle id="Oval" fill="#000000" cx="25" cy="51" r="1"/>
                <circle id="Oval" fill="#000000" cx="49" cy="51" r="1"/>
                <path d="M27.005,31.014 C27.0015629,32.2203495 27.7262488,33.3096018 28.8402535,33.7725107 C29.9542581,34.2354196 31.2374845,33.980527 32.09,33.127 L46.129,19.089 C47.2835818,17.92042 47.2835818,16.04058 46.129,14.872 C44.9479702,13.7471746 43.0920298,13.7471746 41.911,14.872 L27.871,28.911 C27.313421,29.468454 27.0016504,30.2255597 27.005,31.014 Z M29.286,30.324 L43.324,16.287 C43.6039121,16.0030062 44.0284335,15.9178495 44.3962187,16.0719187 C44.7640038,16.2259879 45.0010782,16.5882942 44.995,16.987 C44.9972507,17.2452994 44.896065,17.4937626 44.714,17.677 L30.676,31.713 C30.2866806,32.0824 29.6763194,32.0824 29.287,31.713 C28.9123463,31.3254034 28.9123463,30.7105966 29.287,30.323 L29.286,30.324 Z" id="Shape" fill="#000000" fill-rule="nonzero"/>
                <path d="M31,22 C33.209139,22 35,20.209139 35,18 C35,15.790861 33.209139,14 31,14 C28.790861,14 27,15.790861 27,18 C27,20.209139 28.790861,22 31,22 Z M31,16 C32.1045695,16 33,16.8954305 33,18 C33,19.1045695 32.1045695,20 31,20 C29.8954305,20 29,19.1045695 29,18 C29,16.8954305 29.8954305,16 31,16 Z" id="Shape" fill="#000000" fill-rule="nonzero"/>
                <path d="M43,26 C40.790861,26 39,27.790861 39,30 C39,32.209139 40.790861,34 43,34 C45.209139,34 47,32.209139 47,30 C47,27.790861 45.209139,26 43,26 Z M43,32 C41.8954305,32 41,31.1045695 41,30 C41,28.8954305 41.8954305,28 43,28 C44.1045695,28 45,28.8954305 45,30 C45,31.1045695 44.1045695,32 43,32 Z" id="Shape" fill="#000000" fill-rule="nonzero"/>
            </g>
        </g>
    </g>
</svg>
